<svg width="20" height="20" fill="none" xmlns="http://www.w3.org/2000/svg"><circle cx="10" cy="10" r="9.5" fill="#fff" stroke="#6F7682"/><path d="M3.54 8.907L3.108 8.1h-.032l.08.808v3.664h-.624V6.883h.352l2.68 3.736.416.768h.04l-.088-.768V6.971h.624v5.688h-.352L3.54 8.907zm4.374-1.936h3.048v.592H8.578v1.832h2.184v.592H8.578v1.992h2.424v.592H7.914v-5.6zm5.385 3.752l.128.928h.008l.136-.944 1.152-3.736h.32l1.16 3.752.136.928h.008l.144-.944.944-3.736h.648l-1.56 5.688h-.368L15.02 8.907l-.144-.848h-.04l-.144.856-1.136 3.744h-.368l-1.6-5.688h.704l1.008 3.752z" fill="#6F7682"/></svg>