<svg width="18" height="18" fill="none" xmlns="http://www.w3.org/2000/svg"><path d="M9.217 4.161c2.538.716 3.652 1.637 4.757 4.757M9.648 1.133C13.804 2.378 15.595 3.758 17 8.485M1.367 3.793l1.128-1.129a1 1 0 011.372-.04l2.463 2.19A1 1 0 016.434 6.2L5.408 7.432a.994.994 0 00-.018 1.254c1.418 1.788 2.467 2.929 4.466 4.165a.972.972 0 001.198-.15l.482-.482a1 1 0 011.414 0l2.046 2.045a1 1 0 010 1.414l-1.044 1.044a.994.994 0 01-.974.253c-7.674-2.199-10.5-4.912-11.885-12.302a.99.99 0 01.274-.88z" stroke="#6CDB7E"/></svg>